<svg viewBox="0 0 64 64" xmlns="http://www.w3.org/2000/svg">
  <defs>
    <linearGradient id="g" x1="0%" y1="0%" x2="100%" y2="100%">
      <stop offset="0%" stop-color="#3b82f6"/>
      <stop offset="100%" stop-color="#8b5cf6"/>
    </linearGradient>
  </defs>
  <!-- Background circle -->
  <circle cx="32" cy="32" r="30" fill="#0a0a0a"/>
  <!-- Horse silhouette -->
  <path d="
    M42 10
    c-1.2 0-2.5 0.4-3.5 1.2
    L37 12.5
    c-0.8-0.8-2-1.2-3.2-1.2
    c-1.8 0-3.2 0.8-4 2
    L28 15
    c-2.5 0-4.8 1.2-6 3.5
    l-1.5 3
    c-1.2 0.5-2.5 1.2-3.2 2.5
    l-0.8 2.5
    c-0.5 1.2-0.5 2.5 0 3.8
    L17 32
    c0 1.8 0.5 3.5 1.2 4.8
    L19.5 39
    v7
    c0 0.8 0.7 1.5 1.5 1.5
    h3
    c0.8 0 1.5-0.7 1.5-1.5
    v-5
    l1.5-1.5
    h7
    l1.5 1.5
    v5
    c0 0.8 0.7 1.5 1.5 1.5
    h3
    c0.8 0 1.5-0.7 1.5-1.5
    V37.5
    l1.2-2.5
    c0.5-0.8 0.5-2 0-3
    L44.5 30
    c0.8-1.2 1.2-2.8 1.2-4.5
    V22
    c1.2-0.5 2.5-1.5 2.8-2.8
    c0.5-1.8 0-3.5-1.2-4.8
    L46 12.5
    C45 10.8 43.5 10 42 10z
  " fill="url(#g)"/>
  <!-- Eye -->
  <circle cx="39" cy="15" r="1" fill="white"/>
</svg>
